<mxfile host="app.diagrams.net" modified="2022-05-23T04:59:56.137Z" agent="5.0 (Windows NT 10.0; Win64; x64) AppleWebKit/537.36 (KHTML, like Gecko) Chrome/101.0.4951.64 Safari/537.36 Edg/101.0.1210.53" etag="yAMwNCLKsDbX-mo71fxR" version="18.1.1" type="github">
  <diagram id="sjpx4uVnZ3Y51YqejaF_" name="Page-1">
    <mxGraphModel dx="1102" dy="674" grid="1" gridSize="10" guides="1" tooltips="1" connect="1" arrows="1" fold="1" page="1" pageScale="1" pageWidth="827" pageHeight="1169" math="0" shadow="0">
      <root>
        <mxCell id="0" />
        <mxCell id="1" parent="0" />
        <mxCell id="frZ_OvRd5VPcsJsLgE77-1" value="" style="shape=image;verticalLabelPosition=bottom;labelBackgroundColor=default;verticalAlign=top;aspect=fixed;imageAspect=0;image=https://images.g2crowd.com/uploads/product/image/large_detail/large_detail_c1a4112064e3b9b426f1a99b64e23bea/checkmarx.jpg;" vertex="1" parent="1">
          <mxGeometry x="60" y="120" width="75.91" height="90" as="geometry" />
        </mxCell>
        <mxCell id="frZ_OvRd5VPcsJsLgE77-2" value="" style="shape=image;verticalLabelPosition=bottom;labelBackgroundColor=default;verticalAlign=top;aspect=fixed;imageAspect=0;image=https://upload.wikimedia.org/wikipedia/en/6/61/Coverity_logo.jpg;" vertex="1" parent="1">
          <mxGeometry x="160" y="130" width="124.35" height="70" as="geometry" />
        </mxCell>
        <mxCell id="frZ_OvRd5VPcsJsLgE77-3" value="" style="shape=image;verticalLabelPosition=bottom;labelBackgroundColor=default;verticalAlign=top;aspect=fixed;imageAspect=0;image=https://fbinfer.com/img/logo.png;" vertex="1" parent="1">
          <mxGeometry x="80" y="230" width="80" height="80" as="geometry" />
        </mxCell>
        <mxCell id="frZ_OvRd5VPcsJsLgE77-4" value="&lt;font style=&quot;font-size: 18px;&quot; face=&quot;calibri&quot;&gt;&lt;b&gt;......&lt;/b&gt;&lt;/font&gt;" style="text;html=1;strokeColor=none;fillColor=none;align=center;verticalAlign=middle;whiteSpace=wrap;rounded=0;" vertex="1" parent="1">
          <mxGeometry x="180" y="240" width="60" height="30" as="geometry" />
        </mxCell>
      </root>
    </mxGraphModel>
  </diagram>
</mxfile>
